<?xml version="1.0" encoding="utf-8"?>
<!-- Generator: Adobe Illustrator 26.3.1, SVG Export Plug-In . SVG Version: 6.00 Build 0)  -->
<svg version="1.1" id="レイヤー_1" xmlns="http://www.w3.org/2000/svg" xmlns:xlink="http://www.w3.org/1999/xlink" x="0px"
	 y="0px" viewBox="0 0 595.28 841.89" style="enable-background:new 0 0 595.28 841.89;" xml:space="preserve">
<style type="text/css">
	.st0{fill:#E83817;}
	.st1{fill:#F5A200;}
	.st2{fill:none;}
</style>
<g>
	<path class="st0" d="M273.52,363.88c0,9.72-7.88,17.6-17.6,17.6c-9.72,0-17.61-7.88-17.61-17.6c0-9.72,7.88-17.61,17.61-17.61
		C265.63,346.28,273.52,354.16,273.52,363.88z"/>
	<path class="st0" d="M315.46,363.88c0,9.72-7.88,17.6-17.6,17.6c-9.72,0-17.61-7.88-17.61-17.6c0-9.72,7.88-17.61,17.61-17.61
		C307.58,346.28,315.46,354.16,315.46,363.88z"/>
	<path class="st0" d="M357.4,363.88c0,9.72-7.89,17.6-17.61,17.6c-9.72,0-17.61-7.88-17.61-17.6c0-9.72,7.88-17.61,17.61-17.61
		C349.51,346.28,357.4,354.16,357.4,363.88z"/>
	<path class="st0" d="M273.52,404.27c0,9.72-7.88,17.61-17.6,17.61c-9.72,0-17.61-7.88-17.61-17.61c0-9.72,7.88-17.61,17.61-17.61
		C265.63,386.67,273.52,394.55,273.52,404.27z"/>
	<path class="st0" d="M315.46,404.27c0,9.72-7.88,17.61-17.6,17.61c-9.72,0-17.61-7.88-17.61-17.61c0-9.72,7.88-17.61,17.61-17.61
		C307.58,386.67,315.46,394.55,315.46,404.27z"/>
	<path class="st0" d="M357.4,404.27c0,9.72-7.89,17.61-17.61,17.61c-9.72,0-17.61-7.88-17.61-17.61c0-9.72,7.88-17.61,17.61-17.61
		C349.51,386.67,357.4,394.55,357.4,404.27z"/>
	<path class="st0" d="M273.52,444.66c0,9.72-7.88,17.6-17.6,17.6c-9.72,0-17.61-7.88-17.61-17.6c0-9.73,7.88-17.6,17.61-17.6
		C265.63,427.06,273.52,434.93,273.52,444.66z"/>
	<path class="st1" d="M315.46,444.66c0,9.72-7.88,17.6-17.6,17.6c-9.72,0-17.61-7.88-17.61-17.6c0-9.73,7.88-17.6,17.61-17.6
		C307.58,427.06,315.46,434.93,315.46,444.66z"/>
	<path class="st0" d="M357.4,444.66c0,9.72-7.89,17.6-17.61,17.6c-9.72,0-17.61-7.88-17.61-17.6c0-9.73,7.88-17.6,17.61-17.6
		C349.51,427.06,357.4,434.93,357.4,444.66z"/>
</g>
<g>
	<path class="st2" d="M226.8,473.79v12.92l3.98-3.95h3.79l-5.31,5.13l5.7,7.09h-3.66l-4.04-5.16l-0.45,0.45v4.7h-2.82v-21.19H226.8z
		"/>
	<path class="st2" d="M245.21,482.76h2.83v12.22h-2.83v-1.28c-1.16,1.09-2.41,1.63-3.75,1.63c-1.69,0-3.09-0.61-4.19-1.83
		c-1.1-1.25-1.64-2.8-1.64-4.67c0-1.83,0.55-3.36,1.64-4.58c1.1-1.22,2.47-1.83,4.11-1.83c1.42,0,2.7,0.59,3.83,1.76V482.76z
		 M238.51,488.83c0,1.17,0.31,2.12,0.94,2.86c0.64,0.74,1.46,1.12,2.43,1.12c1.05,0,1.89-0.36,2.53-1.08
		c0.64-0.74,0.97-1.69,0.97-2.83c0-1.15-0.32-2.09-0.97-2.83c-0.64-0.73-1.48-1.09-2.51-1.09c-0.97,0-1.78,0.37-2.43,1.1
		C238.83,486.82,238.51,487.74,238.51,488.83z"/>
	<path class="st2" d="M254.47,473.79v12.92l3.98-3.95h3.79l-5.31,5.13l5.7,7.09h-3.66l-4.04-5.16l-0.45,0.45v4.7h-2.82v-21.19
		H254.47z"/>
	<path class="st2" d="M272.87,482.76h2.83v12.22h-2.83v-1.28c-1.16,1.09-2.41,1.63-3.75,1.63c-1.69,0-3.09-0.61-4.19-1.83
		c-1.1-1.25-1.64-2.8-1.64-4.67c0-1.83,0.55-3.36,1.64-4.58c1.1-1.22,2.47-1.83,4.11-1.83c1.42,0,2.7,0.59,3.83,1.76V482.76z
		 M266.17,488.83c0,1.17,0.31,2.12,0.94,2.86c0.64,0.74,1.45,1.12,2.43,1.12c1.05,0,1.89-0.36,2.53-1.08
		c0.64-0.74,0.97-1.69,0.97-2.83c0-1.15-0.32-2.09-0.97-2.83c-0.64-0.73-1.48-1.09-2.51-1.09c-0.97,0-1.78,0.37-2.43,1.1
		C266.5,486.82,266.17,487.74,266.17,488.83z"/>
	<path class="st2" d="M280.92,482.76l3.2,6.97l3.45-8.09l3.47,8.09l3.16-6.97h3.16l-6.4,13.13l-3.4-7.86l-3.44,7.86l-6.38-13.13
		H280.92z"/>
	<path class="st2" d="M307.75,482.76h2.84v12.22h-2.84v-1.28c-1.16,1.09-2.41,1.63-3.75,1.63c-1.69,0-3.09-0.61-4.19-1.83
		c-1.1-1.25-1.64-2.8-1.64-4.67c0-1.83,0.55-3.36,1.64-4.58c1.1-1.22,2.47-1.83,4.11-1.83c1.42,0,2.7,0.59,3.83,1.76V482.76z
		 M301.05,488.83c0,1.17,0.31,2.12,0.94,2.86c0.64,0.74,1.46,1.12,2.43,1.12c1.05,0,1.89-0.36,2.53-1.08
		c0.64-0.74,0.97-1.69,0.97-2.83c0-1.15-0.32-2.09-0.97-2.83c-0.64-0.73-1.48-1.09-2.51-1.09c-0.97,0-1.78,0.37-2.43,1.1
		C301.37,486.82,301.05,487.74,301.05,488.83z"/>
	<path class="st2" d="M314.19,482.76h2.82v1.09c0.52-0.54,0.98-0.92,1.38-1.12c0.41-0.21,0.89-0.31,1.46-0.31
		c0.74,0,1.52,0.24,2.33,0.73l-1.29,2.58c-0.54-0.38-1.06-0.58-1.57-0.58c-1.54,0-2.31,1.16-2.31,3.49v6.33h-2.82V482.76z"/>
	<path class="st2" d="M323.64,477.68c0-0.49,0.18-0.92,0.54-1.28c0.36-0.36,0.79-0.54,1.29-0.54c0.51,0,0.94,0.18,1.3,0.54
		c0.36,0.35,0.54,0.78,0.54,1.29c0,0.51-0.18,0.95-0.54,1.3c-0.35,0.36-0.78,0.54-1.29,0.54c-0.51,0-0.94-0.18-1.3-0.54
		C323.82,478.64,323.64,478.2,323.64,477.68z M326.89,482.76v12.22h-2.82v-12.22H326.89z"/>
	<path class="st2" d="M330.57,493.57c0-0.47,0.17-0.87,0.51-1.22c0.34-0.34,0.75-0.51,1.23-0.51c0.48,0,0.89,0.17,1.23,0.51
		c0.34,0.34,0.51,0.75,0.51,1.23c0,0.49-0.17,0.9-0.51,1.24c-0.33,0.33-0.74,0.5-1.23,0.5c-0.49,0-0.91-0.17-1.24-0.5
		C330.74,494.49,330.57,494.08,330.57,493.57z"/>
	<path class="st2" d="M337.77,482.76h2.83v1.13c0.99-0.98,2.1-1.47,3.34-1.47c1.42,0,2.53,0.45,3.32,1.34
		c0.69,0.76,1.03,2,1.03,3.73v7.49h-2.84v-6.82c0-1.2-0.17-2.03-0.5-2.49c-0.33-0.47-0.92-0.7-1.78-0.7c-0.94,0-1.6,0.31-1.99,0.93
		c-0.38,0.61-0.58,1.67-0.58,3.19v5.89h-2.83V482.76z"/>
	<path class="st2" d="M362.94,489.53h-8.75c0.08,1,0.4,1.8,0.98,2.4c0.58,0.59,1.32,0.88,2.22,0.88c0.7,0,1.28-0.17,1.74-0.5
		c0.45-0.33,0.97-0.95,1.54-1.86l2.38,1.33c-0.37,0.63-0.76,1.16-1.17,1.61c-0.41,0.45-0.85,0.82-1.32,1.1
		c-0.47,0.29-0.97,0.5-1.52,0.63c-0.54,0.13-1.13,0.2-1.77,0.2c-1.82,0-3.29-0.58-4.39-1.76c-1.1-1.18-1.66-2.74-1.66-4.69
		c0-1.93,0.54-3.5,1.61-4.69c1.08-1.18,2.51-1.77,4.29-1.77c1.8,0,3.22,0.57,4.27,1.72c1.04,1.14,1.55,2.71,1.55,4.73L362.94,489.53
		z M360.05,487.23c-0.39-1.51-1.34-2.26-2.85-2.26c-0.34,0-0.66,0.05-0.97,0.16c-0.3,0.1-0.57,0.25-0.82,0.45
		c-0.25,0.2-0.46,0.43-0.63,0.71c-0.17,0.28-0.31,0.59-0.4,0.94H360.05z"/>
	<path class="st2" d="M368.96,485.4v9.58h-2.82v-9.58h-1.2v-2.63h1.2v-4.48h2.82v4.48h2.2v2.63H368.96z"/>
</g>
<g>
	<path d="M226.8,473.79v12.92l3.98-3.95h3.79l-5.31,5.13l5.7,7.09h-3.66l-4.04-5.16l-0.45,0.45v4.7h-2.82v-21.19H226.8z"/>
	<path d="M245.21,482.76h2.83v12.22h-2.83v-1.28c-1.16,1.09-2.41,1.63-3.75,1.63c-1.69,0-3.09-0.61-4.19-1.83
		c-1.1-1.25-1.64-2.8-1.64-4.67c0-1.83,0.55-3.36,1.64-4.58c1.1-1.22,2.47-1.83,4.11-1.83c1.42,0,2.7,0.59,3.83,1.76V482.76z
		 M238.51,488.83c0,1.17,0.31,2.12,0.94,2.86c0.64,0.74,1.46,1.12,2.43,1.12c1.05,0,1.89-0.36,2.53-1.08
		c0.64-0.74,0.97-1.69,0.97-2.83c0-1.15-0.32-2.09-0.97-2.83c-0.64-0.73-1.48-1.09-2.51-1.09c-0.97,0-1.78,0.37-2.43,1.1
		C238.83,486.82,238.51,487.74,238.51,488.83z"/>
	<path d="M254.47,473.79v12.92l3.98-3.95h3.79l-5.31,5.13l5.7,7.09h-3.66l-4.04-5.16l-0.45,0.45v4.7h-2.82v-21.19H254.47z"/>
	<path d="M272.87,482.76h2.83v12.22h-2.83v-1.28c-1.16,1.09-2.41,1.63-3.75,1.63c-1.69,0-3.09-0.61-4.19-1.83
		c-1.1-1.25-1.64-2.8-1.64-4.67c0-1.83,0.55-3.36,1.64-4.58c1.1-1.22,2.47-1.83,4.11-1.83c1.42,0,2.7,0.59,3.83,1.76V482.76z
		 M266.17,488.83c0,1.17,0.31,2.12,0.94,2.86c0.64,0.74,1.46,1.12,2.43,1.12c1.05,0,1.89-0.36,2.53-1.08
		c0.64-0.74,0.97-1.69,0.97-2.83c0-1.15-0.32-2.09-0.97-2.83c-0.64-0.73-1.48-1.09-2.51-1.09c-0.97,0-1.78,0.37-2.43,1.1
		C266.5,486.82,266.17,487.74,266.17,488.83z"/>
	<path d="M280.92,482.76l3.2,6.97l3.45-8.09l3.47,8.09l3.16-6.97h3.16l-6.4,13.13l-3.4-7.86l-3.44,7.86l-6.38-13.13H280.92z"/>
	<path d="M307.75,482.76h2.83v12.22h-2.83v-1.28c-1.16,1.09-2.41,1.63-3.75,1.63c-1.69,0-3.09-0.61-4.19-1.83
		c-1.1-1.25-1.64-2.8-1.64-4.67c0-1.83,0.55-3.36,1.64-4.58c1.1-1.22,2.47-1.83,4.11-1.83c1.42,0,2.7,0.59,3.83,1.76V482.76z
		 M301.05,488.83c0,1.17,0.31,2.12,0.94,2.86c0.64,0.74,1.46,1.12,2.43,1.12c1.04,0,1.89-0.36,2.53-1.08
		c0.64-0.74,0.97-1.69,0.97-2.83c0-1.15-0.32-2.09-0.97-2.83c-0.64-0.73-1.48-1.09-2.51-1.09c-0.97,0-1.78,0.37-2.43,1.1
		C301.37,486.82,301.05,487.74,301.05,488.83z"/>
	<path d="M314.19,482.76h2.82v1.09c0.52-0.54,0.98-0.92,1.38-1.12c0.41-0.21,0.89-0.31,1.46-0.31c0.74,0,1.52,0.24,2.33,0.73
		l-1.29,2.58c-0.54-0.38-1.06-0.58-1.57-0.58c-1.54,0-2.31,1.16-2.31,3.49v6.33h-2.82V482.76z"/>
	<path d="M323.64,477.68c0-0.49,0.18-0.92,0.54-1.28c0.36-0.36,0.79-0.54,1.29-0.54c0.51,0,0.94,0.18,1.3,0.54
		c0.36,0.35,0.54,0.78,0.54,1.29c0,0.51-0.18,0.95-0.54,1.3c-0.35,0.36-0.78,0.54-1.29,0.54c-0.51,0-0.94-0.18-1.3-0.54
		C323.82,478.64,323.64,478.2,323.64,477.68z M326.89,482.76v12.22h-2.82v-12.22H326.89z"/>
	<path d="M330.57,493.57c0-0.47,0.17-0.87,0.51-1.22s0.75-0.51,1.23-0.51s0.89,0.17,1.23,0.51s0.51,0.75,0.51,1.23
		c0,0.49-0.17,0.9-0.51,1.24c-0.33,0.33-0.74,0.5-1.23,0.5c-0.49,0-0.91-0.17-1.24-0.5C330.74,494.49,330.57,494.08,330.57,493.57z"
		/>
	<path d="M337.77,482.76h2.83v1.13c0.99-0.98,2.1-1.47,3.34-1.47c1.42,0,2.53,0.45,3.32,1.34c0.69,0.76,1.03,2,1.03,3.73v7.49h-2.83
		v-6.82c0-1.2-0.17-2.03-0.5-2.49c-0.33-0.47-0.92-0.7-1.78-0.7c-0.94,0-1.6,0.31-1.99,0.93c-0.38,0.61-0.58,1.67-0.58,3.19v5.89
		h-2.83V482.76z"/>
	<path d="M362.94,489.53h-8.75c0.08,1,0.4,1.8,0.98,2.4c0.58,0.59,1.32,0.88,2.22,0.88c0.7,0,1.28-0.17,1.74-0.5
		c0.45-0.33,0.97-0.95,1.54-1.86l2.38,1.33c-0.37,0.63-0.76,1.16-1.17,1.61c-0.41,0.45-0.85,0.82-1.32,1.1
		c-0.47,0.29-0.97,0.5-1.52,0.63c-0.54,0.13-1.13,0.2-1.77,0.2c-1.82,0-3.29-0.58-4.39-1.76c-1.1-1.18-1.66-2.74-1.66-4.69
		c0-1.93,0.54-3.5,1.61-4.69c1.08-1.18,2.51-1.77,4.29-1.77c1.8,0,3.22,0.57,4.27,1.72c1.04,1.14,1.55,2.71,1.55,4.73L362.94,489.53
		z M360.05,487.23c-0.39-1.51-1.34-2.26-2.85-2.26c-0.34,0-0.66,0.05-0.97,0.16c-0.3,0.1-0.57,0.25-0.82,0.45
		c-0.25,0.2-0.46,0.43-0.63,0.71c-0.17,0.28-0.31,0.59-0.4,0.94H360.05z"/>
	<path d="M368.96,485.4v9.58h-2.82v-9.58h-1.2v-2.63h1.2v-4.48h2.82v4.48h2.2v2.63H368.96z"/>
</g>
</svg>
