<svg width="800" height="600" xmlns="http://www.w3.org/2000/svg" xml:space="preserve" version="1.1">
 <g id="Layer_1">
  <title>Layer 1</title>
  <g stroke="null" id="svg_1">
   <path stroke="null" id="svg_1" fill="#E83817" d="m310.65219,115.62269c0,44.90336 -36.40313,81.30649 -81.30649,81.30649c-44.90336,0 -81.35269,-36.40313 -81.35269,-81.30649c0,-44.90336 36.40313,-81.35269 81.35269,-81.35269c44.85716,0.0462 81.30649,36.44933 81.30649,81.35269z" class="st0"/>
   <path stroke="null" id="svg_2" fill="#E83817" d="m504.40186,115.62269c0,44.90336 -36.40313,81.30649 -81.30649,81.30649c-44.90336,0 -81.35269,-36.40313 -81.35269,-81.30649c0,-44.90336 36.40313,-81.35269 81.35269,-81.35269c44.90336,0.0462 81.30649,36.44933 81.30649,81.35269z" class="st0"/>
   <path stroke="null" id="svg_3" fill="#E83817" d="m698.15153,115.62269c0,44.90336 -36.44933,81.30649 -81.35269,81.30649c-44.90336,0 -81.35269,-36.40313 -81.35269,-81.30649c0,-44.90336 36.40313,-81.35269 81.35269,-81.35269c44.90336,0.0462 81.35269,36.44933 81.35269,81.35269z" class="st0"/>
   <path stroke="null" id="svg_4" fill="#E83817" d="m310.65219,302.21184c0,44.90336 -36.40313,81.35269 -81.30649,81.35269c-44.90336,0 -81.35269,-36.40313 -81.35269,-81.35269c0,-44.90336 36.40313,-81.35269 81.35269,-81.35269c44.85716,0.0462 81.30649,36.44933 81.30649,81.35269z" class="st0"/>
   <path stroke="null" id="svg_5" fill="#E83817" d="m504.40186,302.21184c0,44.90336 -36.40313,81.35269 -81.30649,81.35269c-44.90336,0 -81.35269,-36.40313 -81.35269,-81.35269c0,-44.90336 36.40313,-81.35269 81.35269,-81.35269c44.90336,0.0462 81.30649,36.44933 81.30649,81.35269z" class="st0"/>
   <path stroke="null" id="svg_6" fill="#E83817" d="m698.15153,302.21184c0,44.90336 -36.44933,81.35269 -81.35269,81.35269c-44.90336,0 -81.35269,-36.40313 -81.35269,-81.35269c0,-44.90336 36.40313,-81.35269 81.35269,-81.35269c44.90336,0.0462 81.35269,36.44933 81.35269,81.35269z" class="st0"/>
   <path stroke="null" id="svg_7" fill="#E83817" d="m310.65219,488.80099c0,44.90336 -36.40313,81.30649 -81.30649,81.30649c-44.90336,0 -81.35269,-36.40313 -81.35269,-81.30649c0,-44.94955 36.40313,-81.30649 81.35269,-81.30649c44.85716,0 81.30649,36.35694 81.30649,81.30649z" class="st0"/>
   <path stroke="null" id="svg_8" fill="#F5A200" d="m504.40186,488.80099c0,44.90336 -36.40313,81.30649 -81.30649,81.30649c-44.90336,0 -81.35269,-36.40313 -81.35269,-81.30649c0,-44.94955 36.40313,-81.30649 81.35269,-81.30649c44.90336,0 81.30649,36.35694 81.30649,81.30649z" class="st1"/>
   <path stroke="null" id="svg_9" fill="#E83817" d="m698.15153,488.80099c0,44.90336 -36.44933,81.30649 -81.35269,81.30649c-44.90336,0 -81.35269,-36.40313 -81.35269,-81.30649c0,-44.94955 36.40313,-81.30649 81.35269,-81.30649c44.90336,0 81.35269,36.35694 81.35269,81.30649z" class="st0"/>
  </g>
  <g stroke="null" id="svg_11">
   <path stroke="null" id="svg_11" fill="none" d="m154.99827,496.45331l0,46.01669l14.17542,-14.06857l13.4987,0l-18.91243,18.27133l20.30148,25.25219l-13.03569,0l-14.38912,-18.37818l-1.60275,1.60275l0,16.73982l-10.04389,0l0,-75.47165l10.00827,0l0,0.03562z" class="st2"/>
   <path stroke="null" id="svg_12" fill="none" d="m220.56849,528.40143l10.07951,0l0,43.52353l-10.07951,0l0,-4.55893c-4.13153,3.88221 -8.58361,5.80551 -13.35624,5.80551c-6.01921,0 -11.00554,-2.17261 -14.92337,-6.51784c-3.91783,-4.45208 -5.84113,-9.97266 -5.84113,-16.63297c0,-6.51784 1.95891,-11.96719 5.84113,-16.31242c3.91783,-4.34523 8.79731,-6.51784 14.63844,-6.51784c5.05756,0 9.61649,2.10138 13.64117,6.26853l0,-5.05756zm-23.86314,21.6193c0,4.16715 1.10412,7.55073 3.34796,10.18636c2.27946,2.63563 5.20003,3.98906 8.65484,3.98906c3.73975,0 6.73154,-1.2822 9.01101,-3.8466c2.27946,-2.63563 3.45481,-6.01921 3.45481,-10.07951c0,-4.09591 -1.13973,-7.44388 -3.45481,-10.07951c-2.27946,-2.60001 -5.27126,-3.88221 -8.93977,-3.88221c-3.45481,0 -6.33976,1.31782 -8.65484,3.91783c-2.27946,2.63563 -3.4192,5.91236 -3.4192,9.79457z" class="st2"/>
   <path stroke="null" id="svg_13" fill="none" d="m253.5495,496.45331l0,46.01669l14.17542,-14.06857l13.4987,0l-18.91243,18.27133l20.30148,25.25219l-13.03569,0l-14.38912,-18.37818l-1.60275,1.60275l0,16.73982l-10.04389,0l0,-75.47165l10.00827,0l0,0.03562z" class="st2"/>
   <path stroke="null" id="svg_14" fill="none" d="m319.0841,528.40143l10.07951,0l0,43.52353l-10.07951,0l0,-4.55893c-4.13153,3.88221 -8.58361,5.80551 -13.35624,5.80551c-6.01921,0 -11.00554,-2.17261 -14.92337,-6.51784c-3.91783,-4.45208 -5.84113,-9.97266 -5.84113,-16.63297c0,-6.51784 1.95891,-11.96719 5.84113,-16.31242c3.91783,-4.34523 8.79731,-6.51784 14.63844,-6.51784c5.05756,0 9.61649,2.10138 13.64117,6.26853l0,-5.05756zm-23.86314,21.6193c0,4.16715 1.10412,7.55073 3.34796,10.18636c2.27946,2.63563 5.16441,3.98906 8.65484,3.98906c3.73975,0 6.73154,-1.2822 9.01101,-3.8466c2.27946,-2.63563 3.45481,-6.01921 3.45481,-10.07951c0,-4.09591 -1.13973,-7.44388 -3.45481,-10.07951c-2.27946,-2.60001 -5.27126,-3.88221 -8.93977,-3.88221c-3.45481,0 -6.33976,1.31782 -8.65484,3.91783c-2.24385,2.63563 -3.4192,5.91236 -3.4192,9.79457z" class="st2"/>
   <path stroke="null" id="svg_15" fill="none" d="m347.75549,528.40143l11.39732,24.82479l12.28774,-28.81386l12.35897,28.81386l11.25486,-24.82479l11.25486,0l-22.79465,46.76464l-12.10966,-27.99467l-12.25212,27.99467l-22.72341,-46.76464l11.32609,0z" class="st2"/>
   <path stroke="null" id="svg_16" fill="none" d="m443.31492,528.40143l10.11512,0l0,43.52353l-10.11512,0l0,-4.55893c-4.13153,3.88221 -8.58361,5.80551 -13.35624,5.80551c-6.01921,0 -11.00554,-2.17261 -14.92337,-6.51784c-3.91783,-4.45208 -5.84113,-9.97266 -5.84113,-16.63297c0,-6.51784 1.95891,-11.96719 5.84113,-16.31242c3.91783,-4.34523 8.79731,-6.51784 14.63844,-6.51784c5.05756,0 9.61649,2.10138 13.64117,6.26853l0,-5.05756zm-23.86314,21.6193c0,4.16715 1.10412,7.55073 3.34796,10.18636c2.27946,2.63563 5.20003,3.98906 8.65484,3.98906c3.73975,0 6.73154,-1.2822 9.01101,-3.8466c2.27946,-2.63563 3.45481,-6.01921 3.45481,-10.07951c0,-4.09591 -1.13973,-7.44388 -3.45481,-10.07951c-2.27946,-2.60001 -5.27126,-3.88221 -8.93977,-3.88221c-3.45481,0 -6.33976,1.31782 -8.65484,3.91783c-2.27946,2.63563 -3.4192,5.91236 -3.4192,9.79457z" class="st2"/>
   <path stroke="null" id="svg_17" fill="none" d="m466.25203,528.40143l10.04389,0l0,3.88221c1.85206,-1.9233 3.49043,-3.27673 4.9151,-3.98906c1.46028,-0.74795 3.16988,-1.10412 5.20003,-1.10412c2.63563,0 5.41373,0.8548 8.29868,2.60001l-4.59455,9.18909c-1.9233,-1.35343 -3.77536,-2.06576 -5.59181,-2.06576c-5.48496,0 -8.22744,4.13153 -8.22744,12.43021l0,22.54533l-10.04389,0l0,-43.48791z" class="st2"/>
   <path stroke="null" id="svg_18" fill="none" d="m499.90975,510.30818c0,-1.74522 0.6411,-3.27673 1.9233,-4.55893c1.2822,-1.2822 2.81371,-1.9233 4.59455,-1.9233c1.81645,0 3.34796,0.6411 4.63016,1.9233c1.2822,1.24658 1.9233,2.7781 1.9233,4.59455c0,1.81645 -0.6411,3.38358 -1.9233,4.63016c-1.24658,1.2822 -2.7781,1.9233 -4.59455,1.9233c-1.81645,0 -3.34796,-0.6411 -4.63016,-1.9233c-1.2822,-1.24658 -1.9233,-2.81371 -1.9233,-4.66578zm11.57541,18.09325l0,43.52353l-10.04389,0l0,-43.52353l10.04389,0z" class="st2"/>
   <path stroke="null" id="svg_19" fill="none" d="m524.59208,566.90301c0,-1.67398 0.60548,-3.09865 1.81645,-4.34523c1.21097,-1.21097 2.67125,-1.81645 4.38085,-1.81645c1.7096,0 3.16988,0.60548 4.38085,1.81645c1.21097,1.21097 1.81645,2.67125 1.81645,4.38085c0,1.74522 -0.60548,3.2055 -1.81645,4.41646c-1.17535,1.17535 -2.63563,1.78083 -4.38085,1.78083c-1.74522,0 -3.24111,-0.60548 -4.41646,-1.78083c-1.17535,-1.17535 -1.78083,-2.63563 -1.78083,-4.45208z" class="st2"/>
   <path stroke="null" id="svg_20" fill="none" d="m550.23605,528.40143l10.07951,0l0,4.02468c3.52605,-3.49043 7.47949,-5.23565 11.89596,-5.23565c5.05756,0 9.01101,1.60275 11.82472,4.77263c2.45755,2.70686 3.66851,7.12333 3.66851,13.285l0,26.67686l-10.11512,0l0,-24.29054c0,-4.274 -0.60548,-7.23018 -1.78083,-8.86854c-1.17535,-1.67398 -3.27673,-2.49316 -6.33976,-2.49316c-3.34796,0 -5.69866,1.10412 -7.08771,3.31235c-1.35343,2.17261 -2.06576,5.94798 -2.06576,11.36171l0,20.9782l-10.07951,0l0,-43.52353z" class="st2"/>
   <path stroke="null" id="svg_21" fill="none" d="m639.88312,552.51389l-31.16455,0c0.28493,3.56166 1.42467,6.41099 3.49043,8.54799c2.06576,2.10138 4.7014,3.13426 7.90689,3.13426c2.49316,0 4.55893,-0.60548 6.19729,-1.78083c1.60275,-1.17535 3.45481,-3.38358 5.48496,-6.62469l8.47676,4.73701c-1.31782,2.24385 -2.70686,4.13153 -4.16715,5.73428c-1.46028,1.60275 -3.02741,2.92056 -4.7014,3.91783c-1.67398,1.03288 -3.45481,1.78083 -5.41373,2.24385c-1.9233,0.46302 -4.02468,0.71233 -6.30414,0.71233c-6.48223,0 -11.71787,-2.06576 -15.6357,-6.26853c-3.91783,-4.20276 -5.91236,-9.75896 -5.91236,-16.7042c0,-6.87401 1.9233,-12.46582 5.73428,-16.7042c3.8466,-4.20276 8.93977,-6.30414 15.27954,-6.30414c6.41099,0 11.46856,2.03015 15.2083,6.12606c3.70413,4.0603 5.52058,9.65211 5.52058,16.84667l0,2.38631zm-10.29321,-8.19183c-1.38905,-5.37811 -4.77263,-8.04936 -10.15074,-8.04936c-1.21097,0 -2.3507,0.17808 -3.45481,0.56987c-1.0685,0.35617 -2.03015,0.89042 -2.92056,1.60275c-0.89042,0.71233 -1.63837,1.53152 -2.24385,2.52878c-0.60548,0.99727 -1.10412,2.10138 -1.42467,3.34796l20.19463,0z" class="st2"/>
   <path stroke="null" id="svg_22" fill="none" d="m661.32433,537.80422l0,34.12073l-10.04389,0l0,-34.12073l-4.274,0l0,-9.36717l4.274,0l0,-15.95625l10.04389,0l0,15.95625l7.83566,0l0,9.36717l-7.83566,0z" class="st2"/>
  </g>
 </g>
</svg>